M48
; DRILL file KiCad 10.0.3 date 2026-05-19T10:00:20
; FORMAT={-:-/ absolute / metric / decimal}
; #@! TF.CreationDate,2026-05-19T10:00:20+03:00
; #@! TF.GenerationSoftware,Kicad,Pcbnew,10.0.3
; #@! TF.FileFunction,Plated,1,2,PTH
FMAT,2
METRIC
; #@! TA.AperFunction,Plated,PTH,ViaDrill
T1C0.300
; #@! TA.AperFunction,Plated,PTH,ViaDrill
T2C0.400
; #@! TA.AperFunction,Plated,PTH,ComponentDrill
T3C0.600
; #@! TA.AperFunction,Plated,PTH,ComponentDrill
T4C0.800
; #@! TA.AperFunction,Plated,PTH,ComponentDrill
T5C1.000
%
G90
G05
T1
X205.64Y-90.2
X205.65Y-84.79
X208.41Y-88.13
X211.8Y-87.81
X218.7Y-84.75
X220.07Y-87.81
X226.06Y-78.29
X226.08Y-71.74
X228.36Y-65.96
T2
X196.98Y-82.0
X197.44Y-67.3
X209.29Y-66.72
X209.7Y-71.88
X224.5Y-87.39
X226.24Y-82.02
T4
X201.318Y-80.7
X203.818Y-80.7
T5
X190.3Y-73.855
X190.3Y-76.395
X190.3Y-78.935
X190.3Y-81.475
X190.3Y-84.015
X192.84Y-72.585
X192.84Y-75.125
X192.84Y-77.665
X192.84Y-80.205
X192.84Y-82.745
X228.468Y-75.05
X228.468Y-80.13
X228.468Y-85.21
X228.468Y-87.75
T3
G00X187.4Y-70.5
M15
G01X186.0Y-70.5
M16
G05
G00X187.4Y-86.1
M15
G01X186.0Y-86.1
M16
G05
M30
