G04 #@! TF.GenerationSoftware,KiCad,Pcbnew,10.0.3*
G04 #@! TF.CreationDate,2026-05-19T10:00:19+03:00*
G04 #@! TF.ProjectId,S360-410-R4,53333630-2d34-4313-902d-52342e6b6963,rev?*
G04 #@! TF.SameCoordinates,Original*
G04 #@! TF.FileFunction,Soldermask,Top*
G04 #@! TF.FilePolarity,Negative*
%FSLAX46Y46*%
G04 Gerber Fmt 4.6, Leading zero omitted, Abs format (unit mm)*
G04 Created by KiCad (PCBNEW 10.0.3) date 2026-05-19 10:00:19*
%MOMM*%
%LPD*%
G01*
G04 APERTURE LIST*
G04 Aperture macros list*
%AMRoundRect*
0 Rectangle with rounded corners*
0 $1 Rounding radius*
0 $2 $3 $4 $5 $6 $7 $8 $9 X,Y pos of 4 corners*
0 Add a 4 corners polygon primitive as box body*
4,1,4,$2,$3,$4,$5,$6,$7,$8,$9,$2,$3,0*
0 Add four circle primitives for the rounded corners*
1,1,$1+$1,$2,$3*
1,1,$1+$1,$4,$5*
1,1,$1+$1,$6,$7*
1,1,$1+$1,$8,$9*
0 Add four rect primitives between the rounded corners*
20,1,$1+$1,$2,$3,$4,$5,0*
20,1,$1+$1,$4,$5,$6,$7,0*
20,1,$1+$1,$6,$7,$8,$9,0*
20,1,$1+$1,$8,$9,$2,$3,0*%
G04 Aperture macros list end*
%ADD10RoundRect,0.150000X-0.825000X-0.150000X0.825000X-0.150000X0.825000X0.150000X-0.825000X0.150000X0*%
%ADD11R,2.290000X3.000000*%
%ADD12RoundRect,0.250000X-0.362500X-1.425000X0.362500X-1.425000X0.362500X1.425000X-0.362500X1.425000X0*%
%ADD13RoundRect,0.250000X-0.650000X0.325000X-0.650000X-0.325000X0.650000X-0.325000X0.650000X0.325000X0*%
%ADD14RoundRect,0.250000X1.500000X0.550000X-1.500000X0.550000X-1.500000X-0.550000X1.500000X-0.550000X0*%
%ADD15R,2.850000X6.600000*%
%ADD16RoundRect,0.250000X-0.550000X-0.550000X0.550000X-0.550000X0.550000X0.550000X-0.550000X0.550000X0*%
%ADD17C,1.600000*%
%ADD18RoundRect,0.135000X-0.185000X0.135000X-0.185000X-0.135000X0.185000X-0.135000X0.185000X0.135000X0*%
%ADD19RoundRect,0.250000X1.000000X0.650000X-1.000000X0.650000X-1.000000X-0.650000X1.000000X-0.650000X0*%
%ADD20RoundRect,0.140000X-0.170000X0.140000X-0.170000X-0.140000X0.170000X-0.140000X0.170000X0.140000X0*%
%ADD21RoundRect,0.250000X1.400000X1.000000X-1.400000X1.000000X-1.400000X-1.000000X1.400000X-1.000000X0*%
%ADD22RoundRect,0.250000X0.625000X-0.312500X0.625000X0.312500X-0.625000X0.312500X-0.625000X-0.312500X0*%
%ADD23RoundRect,0.135000X-0.135000X-0.185000X0.135000X-0.185000X0.135000X0.185000X-0.135000X0.185000X0*%
%ADD24C,3.200000*%
%ADD25RoundRect,0.225000X-0.250000X0.225000X-0.250000X-0.225000X0.250000X-0.225000X0.250000X0.225000X0*%
%ADD26RoundRect,0.140000X0.170000X-0.140000X0.170000X0.140000X-0.170000X0.140000X-0.170000X-0.140000X0*%
%ADD27RoundRect,0.249999X0.900001X-0.525001X0.900001X0.525001X-0.900001X0.525001X-0.900001X-0.525001X0*%
%ADD28RoundRect,0.135000X0.185000X-0.135000X0.185000X0.135000X-0.185000X0.135000X-0.185000X-0.135000X0*%
%ADD29RoundRect,0.140000X0.140000X0.170000X-0.140000X0.170000X-0.140000X-0.170000X0.140000X-0.170000X0*%
%ADD30C,3.401601*%
%ADD31O,3.101599X1.701600*%
%ADD32C,1.625600*%
%ADD33RoundRect,0.250001X0.499999X0.499999X-0.499999X0.499999X-0.499999X-0.499999X0.499999X-0.499999X0*%
%ADD34C,1.500000*%
%ADD35RoundRect,0.218750X-0.256250X0.218750X-0.256250X-0.218750X0.256250X-0.218750X0.256250X0.218750X0*%
%ADD36RoundRect,0.150000X0.625000X-0.150000X0.625000X0.150000X-0.625000X0.150000X-0.625000X-0.150000X0*%
%ADD37RoundRect,0.250000X0.650000X-0.350000X0.650000X0.350000X-0.650000X0.350000X-0.650000X-0.350000X0*%
G04 APERTURE END LIST*
D10*
G04 #@! TO.C,U2*
X211795000Y-83295000D03*
X211795000Y-84565000D03*
X211795000Y-85835000D03*
X211795000Y-87105000D03*
X216745000Y-87105000D03*
X216745000Y-85835000D03*
X216745000Y-84565000D03*
X216745000Y-83295000D03*
D11*
X214270000Y-85200000D03*
G04 #@! TD*
D12*
G04 #@! TO.C,R4*
X197437500Y-73400000D03*
X203362500Y-73400000D03*
G04 #@! TD*
D13*
G04 #@! TO.C,C3*
X197000000Y-80125000D03*
X197000000Y-83075000D03*
G04 #@! TD*
D12*
G04 #@! TO.C,R3*
X197437500Y-69500000D03*
X203362500Y-69500000D03*
G04 #@! TD*
D14*
G04 #@! TO.C,C6*
X214700000Y-68000000D03*
X209300000Y-68000000D03*
G04 #@! TD*
D15*
G04 #@! TO.C,L1*
X214875000Y-77000000D03*
X220525000Y-77000000D03*
G04 #@! TD*
D16*
G04 #@! TO.C,C2*
X201317621Y-80700000D03*
D17*
X203817621Y-80700000D03*
G04 #@! TD*
D18*
G04 #@! TO.C,R1*
X198100000Y-85735000D03*
X198100000Y-86755000D03*
G04 #@! TD*
D19*
G04 #@! TO.C,D1*
X194000000Y-88900000D03*
X190000000Y-88900000D03*
G04 #@! TD*
D18*
G04 #@! TO.C,R9*
X223850000Y-72290000D03*
X223850000Y-73310000D03*
G04 #@! TD*
G04 #@! TO.C,R8*
X221540000Y-82930000D03*
X221540000Y-83950000D03*
G04 #@! TD*
D20*
G04 #@! TO.C,C1*
X197100000Y-86980000D03*
X197100000Y-87940000D03*
G04 #@! TD*
D21*
G04 #@! TO.C,D2*
X209700000Y-80400000D03*
X209700000Y-73600000D03*
G04 #@! TD*
D22*
G04 #@! TO.C,R5*
X208820000Y-86562500D03*
X208820000Y-83637500D03*
G04 #@! TD*
D23*
G04 #@! TO.C,R6*
X218990000Y-83300000D03*
X220010000Y-83300000D03*
G04 #@! TD*
D24*
G04 #@! TO.C,H2*
X221510000Y-64080000D03*
G04 #@! TD*
D25*
G04 #@! TO.C,C8*
X225217500Y-76750000D03*
X225217500Y-78300000D03*
G04 #@! TD*
D26*
G04 #@! TO.C,C5*
X221540000Y-86370000D03*
X221540000Y-85410000D03*
G04 #@! TD*
D27*
G04 #@! TO.C,C7*
X224500000Y-86175000D03*
X224500000Y-82025000D03*
G04 #@! TD*
D28*
G04 #@! TO.C,R2*
X198100000Y-89270000D03*
X198100000Y-88250000D03*
G04 #@! TD*
D29*
G04 #@! TO.C,C4*
X219980000Y-82300000D03*
X219020000Y-82300000D03*
G04 #@! TD*
D30*
G04 #@! TO.C,LAN_CON1*
X183650000Y-72585000D03*
X183650000Y-84015000D03*
D31*
X186700000Y-70500000D03*
X186700000Y-86100000D03*
D32*
X192840000Y-72585000D03*
X190300000Y-73855000D03*
X192840000Y-75125000D03*
X190300000Y-76395000D03*
X192840000Y-77665000D03*
X190300000Y-78935000D03*
X192840000Y-80205000D03*
X190300000Y-81475000D03*
X192840000Y-82745000D03*
X190300000Y-84015000D03*
G04 #@! TD*
D33*
G04 #@! TO.C,DCDC1*
X228467500Y-87750000D03*
D34*
X228467500Y-85210000D03*
X228467500Y-80130000D03*
X228467500Y-75050000D03*
G04 #@! TD*
D35*
G04 #@! TO.C,D3*
X225217500Y-71737500D03*
X225217500Y-73312500D03*
G04 #@! TD*
D10*
G04 #@! TO.C,U1*
X200700000Y-85590000D03*
X200700000Y-86860000D03*
X200700000Y-88130000D03*
X200700000Y-89400000D03*
X205650000Y-89400000D03*
X205650000Y-88130000D03*
X205650000Y-86860000D03*
X205650000Y-85590000D03*
D11*
X203175000Y-87495000D03*
G04 #@! TD*
D24*
G04 #@! TO.C,H4*
X183100000Y-90900000D03*
G04 #@! TD*
D36*
G04 #@! TO.C,J3*
X228357500Y-67620000D03*
X228357500Y-66620000D03*
D37*
X232232500Y-68920000D03*
X232232500Y-65320000D03*
G04 #@! TD*
D23*
G04 #@! TO.C,R7*
X219060000Y-87100000D03*
X220080000Y-87100000D03*
G04 #@! TD*
D24*
G04 #@! TO.C,H3*
X221600000Y-90900000D03*
G04 #@! TD*
G04 #@! TO.C,H1*
X183100000Y-64100000D03*
G04 #@! TD*
M02*
